<svg width="143" height="195" viewBox="0 0 143 195" fill="none" xmlns="http://www.w3.org/2000/svg">
<path d="M0 37.9321C0 35.1659 1.62903 32.6591 4.15681 31.5355L72.1122 1.33026C74.0088 0.487273 76.1816 0.529338 78.0441 1.4451L139.089 31.46C141.483 32.6373 143 35.0735 143 37.7417V155.258C143 157.864 141.553 160.254 139.244 161.462L78.1914 193.386C76.2475 194.403 73.9395 194.449 71.9562 193.512L4.00845 161.392C1.56097 160.235 0 157.771 0 155.064V37.9321Z" fill="#FC4848"/>
<path d="M69.7328 13.6495L11.3578 37.8975C9.80646 38.5419 9.69257 40.6959 11.1673 41.5003L34.1368 54.0292C34.6812 54.3261 35.3324 54.3537 35.9 54.104L71.3055 38.5256C72.0314 38.2062 72.5 37.488 72.5 36.695V15.4965C72.5 14.0702 71.0499 13.1023 69.7328 13.6495Z" fill="#FDA3A3"/>
</svg>
