<svg width="145" height="217" viewBox="0 0 145 217" fill="none" xmlns="http://www.w3.org/2000/svg">
<path d="M144.675 148.02C144.675 186.116 112.049 217 72.4258 217C35.4854 217 5.06574 190.156 1.11607 155.651C0.537583 150.597 0.0853685 145.538 0.00712327 140.452C-0.802226 87.8408 67.6172 -18.4926 72.4258 2.7738C85.0566 38.7214 144.675 100.415 144.675 148.02Z" fill="#FF9600"/>
<path d="M100.719 169.465C100.719 184.986 87.7303 197.569 71.9558 197.569C58.7786 197.569 47.6855 188.789 44.3898 176.85C43.0666 172.056 42.7716 166.967 43.3859 162.032C46.1742 139.632 70.1636 102.176 71.9558 110.288C76.9844 124.934 100.719 150.069 100.719 169.465Z" fill="#FFC917"/>
</svg>
